<svg xmlns="http://www.w3.org/2000/svg" width="16" height="13" viewBox="0 0 16 13">
    <path fill="#C09552" fill-rule="nonzero" d="M15.131.023V0H.861v.023A.933.933 0 0 0 0 .845v9.13c0 .175.047.323.125.457.18.308.446.464.814.464H6.09v1.265h-.978a.42.42 0 1 0 0 .839h5.769a.426.426 0 0 0 .438-.42.426.426 0 0 0-.438-.419h-.979v-1.265h5.15c.369 0 .637-.156.815-.464.08-.14.133-.29.133-.457V.845a.955.955 0 0 0-.869-.822zm0 .899v9.053c0 .053-.023.076-.078.076H.939c-.054 0-.078-.023-.078-.076V.845h14.27v.077z" opacity=".72"/>
</svg>
